<svg xmlns="http://www.w3.org/2000/svg" width="2048" height="2048" viewBox="0 0 2048 2048"><defs><linearGradient id="b" x1="1024" x2="1024" y1="290" y2="1110" gradientUnits="userSpaceOnUse"><stop offset="0" stop-color="#ffe14a"/><stop offset=".4" stop-color="#fcab1f"/><stop offset=".7" stop-color="#f56f1b"/><stop offset="1" stop-color="#ef3a1e"/></linearGradient><linearGradient id="a" x1="1024" x2="1024" y1="1000" y2="1820" gradientUnits="userSpaceOnUse"><stop offset="0" stop-color="#6fcdf6"/><stop offset=".5" stop-color="#3aa2e2"/><stop offset="1" stop-color="#1668c0"/></linearGradient></defs><path fill="url(#a)" d="M981.7 1111c110.1-2 214.8 25.5 335.8 70.9q24.7 9.3 49.5 18.1l2.5.9c81.8 28.9 166.5 48.2 253.4 51.4h3.4l6.2.3c9.1.2 9.1.2 12.5 2.4 1.2 4.8.4 6.3-1.4 10.9l-1.7 4.3-1.9 4.8-2 5a690 690 0 0 1-16.4 37.8l-1.3 2.8c-1.3 2.4-1.3 2.4-4.3 5.4-6.7.4-13.3-.4-20-1.2l-6.5-.8-3.4-.4c-109.7-13-221.2-10-421.1 40.4l-3.4 1.3A856 856 0 0 0 990 1453l-2.7 1.8q-16.5 10.7-32.3 22.2l-4.3 3a1009 1009 0 0 0-55.4 42.8q-6.7 5.6-13.7 11-7.7 6-15 12.8l-8 6.8q-7.4 6.2-14.6 12.8l-6.7 6a783 783 0 0 0-38.8 37.1l-8.3 8.3-5.3 5.4-2.5 2.5q-6 5.9-11.4 12.5a55 55 0 0 1-19-4.8l-2.9-1.2q-17.2-7.6-34.1-16l-4.6-2.2q-14-7-27.4-14.8l-2.4-1.4A733 733 0 0 1 618 1557l-3.4-2.4-3.1-2.1-2.6-1.8c-1.9-1.7-1.9-1.7-2.9-5.7a118 118 0 0 1 8.2-12l11-15.6c5.3-7.4 10.5-14.6 16.8-21.2q3-3.4 5.8-7 7.9-9.8 16.2-19.2l2-2.3 16.3-18.3 2.3-2.5 2-2.3 5.4-6.1q7.9-8.8 16.2-17l3.3-3.2q8.6-8.7 18.1-16.4 4.4-3.7 8.6-7.5l3-2.8 2.8-2.6q10.6-9.5 22-18l3.1-2.5a486 486 0 0 1 32.1-22.7A613 613 0 0 1 935 1278l4-1.4a679 679 0 0 1 69-20.6l4-1a743 743 0 0 1 212.2-19.2l3.1.1A888 888 0 0 1 1407 1264l5.6 1.4a5141 5141 0 0 1 120.9 31.8l3.2 1 21.3 5.8 3.5 1 13.7 3.8 3 .8 2.7.7c2.1.7 2.1.7 4.1 1.7v-2l-2.5-.8a124 124 0 0 1-15.2-6.5l-4.6-2-4.8-2.3q-13.4-6-26.6-12.5A1224 1224 0 0 0 1400 1232l-2.8-1a916 916 0 0 0-226.2-47l-3.3-.3q-15-1-30-.9h-27.3c-30.9-.3-61.4 1-91.9 5.6l-4.5.6-13 2-3.5.5c-35.6 5.3-70.7 15-104.5 27.1l-11.5 4A575 575 0 0 0 781 1269l-2.6 1.5a790 790 0 0 0-51.9 33q-7.9 5.4-15.5 11.5l-4.3 3.3-2.2 1.8-5.5 4.1q-10.5 8-20.6 17l-9.3 7.6A145 145 0 0 0 657 1360l-3.5 3c-6.9 6-13.1 12.6-19.5 19.2l-3 3-2.8 2.8c-2.2 2-2.2 2-4.2 2v2l-5 5-4.2 4.2-2.4 2.4-11 10.9-5.6 5.7-8.3 8.2-2.6 2.6q-7.2 7.2-13.9 15l-7 7-5 5.7-10.3 11.4-6.7 7.6c-3 3.3-3 3.3-6 4.3a203 203 0 0 1-22.9-22.6q-3.5-4-7.1-7.8a330 330 0 0 1-18-20.6l-3-3.6q-12-14.7-23-30.4l-3.3-4.6q-7.6-10.5-14.7-21.4c2-4.2 4-7.4 7.1-10.7q4.8-5.1 9-10.5 7.4-8.7 15.3-17l7.7-8.5q8.4-9.2 17.5-18l3.2-3.3a292 292 0 0 1 20.6-19q17.4-15 35.6-29l2.3-1.7q15.9-12.3 32.7-23.3l5.2-3.4a768 768 0 0 1 71.5-42.2 616 616 0 0 1 236.5-70l4-.4a977 977 0 0 1 69.5-3"/><path fill="url(#a)" d="m1586 1373 2 3a575 575 0 0 1-47.4 64l-6.7 8.2a553 553 0 0 1-19.4 20.3l-2.1 2q-3 3-5.7 6.3-5.5 6.3-11.4 12.1l-2.2 2.2-4.5 4.5-6.9 7a261 261 0 0 1-23.7 21.4l-5.4 5a245 245 0 0 1-18.6 15l-4.2 3.4q-7.4 5.6-15 10.8l-11.1 8a335 335 0 0 1-33.2 21.3L1353 1598l-3 1.8q-11 6.5-22.4 12l-8.7 4.3c-85.7 42.8-185 69.2-281 69h-29.1a581 581 0 0 1-108-8.2c-.8 0-.8 0-4.8-.7l-4.5-.7-3.9-.7c-3.8-.8-7-2.2-10.6-3.8 1.5-5.2 5-8.6 8.8-12.4l4-4.3 2.2-2.2 5.5-5.8q9.7-10.6 19.9-20.8l2.2-2.2q6-6.1 12.6-11.7 3.5-3.2 6.8-6.6 5.1-5.3 10.9-10.2 3.8-3.2 7.4-6.7 6.8-6 13.8-11.8l9-7.5q8.6-7.3 17.4-13.9 7.3-5.5 14.3-11.2c10-8 20.7-15 31.5-22.2l10-7.1a538 538 0 0 1 60.4-36.5 828 828 0 0 1 28.5-15.5l2.3-1.1q23.8-12.2 48.4-22.5l12.3-5.4q10.7-4.7 21.7-8.8l3.7-1.4a1040 1040 0 0 1 40.6-14.3A738 738 0 0 1 1450 1372l3.6-.3c95.5-7.5 95.5-7.5 132.4 1.3"/><path fill="url(#b)" d="m1227.3 797.7 7.9 6.4a214 214 0 0 1 19 18q9 9 16.8 18.9l4.9 5.7c5.9 7 11 14.6 16.1 22.3l2 3.1a303 303 0 0 1 41.6 107.1c3.3 17.4 3.8 34.7 3.8 52.3v3.2c.1 18.9-1.8 37.1-5.8 55.6l-.6 3c-5.4 24.5-5.4 24.5-11 34.7-5 1.2-6.9.2-11.7-1.6l-2.3-.9-4.9-1.8-13-5-2.6-1a1313 1313 0 0 0-61.2-20.7l-4.5-1.4-4-1.3c-9.9-3.4-9.9-3.4-11.8-5.3q.7-8.7 2.5-17.2a169 169 0 0 0-.5-70.8l-1.1-4.8a179 179 0 0 0-77.9-110.7l-12-6.5-4-2.1c-9.4-5-19-8.6-29-11.9l-3-1.1a170 170 0 0 0-92.8-3A174 174 0 0 0 906 904l-4 3.4c-28.1 24.8-44.6 61.7-52 97.7l-.7 3.4-.6 3c-.7 2.5-.7 2.5-2.7 4.5-2.6.2-2.6.2-5.8.2h-11.4a531 531 0 0 1-21.4-.6c-19.2-.8-38.4-.6-57.6-.5l-17.8.1h-7.2c-2.8-.2-2.8-.2-5.8-2.2-2.3-47.1 19.5-102.4 45-141l1.7-2.5a332 332 0 0 1 61.5-70.3l8-6.5c87.5-71.6 218.8-85.5 392 5m-116-443.2 15.2 2.2c14.4 2.1 14.4 2.1 17.6 5.3a133 133 0 0 1-3.4 25l-.7 3.8-2.5 12.4-1.7 8.8-5.2 26.5-1.5 7.6-8.8 44.5q-5.7 28.4-11 56.8l-.6 2.7-.5 2.7q-6 32-12.4 63.9l-2 10.3-3.5 17.5-1.4 6.7-1.8 9.2-.5 2.7c-2.1 10.5-2.1 10.5-5.5 13.9l-9.3-.3-6.3-.3-3.6-.2a423 423 0 0 0-82.1 1.6l-3.7.2c-3.2-3.2-3.5-4.2-4.4-8.5l-1.4-7.2-.8-4-2.5-12.7-1.6-8.1-2.5-12.6-6.5-32-15.2-75.5-3.6-18.2L929 456l-.7-3.3-10.6-53.7-.9-4.7-1.7-8.7-.8-3.8-2-9.8a48 48 0 0 1-1.3-14c3-3 5.5-2.7 9.6-3.2l4.8-.6 5.3-.6 2.7-.4L953 351l4.8-.5a635 635 0 0 1 153.4 4"/><path fill="url(#b)" d="M780 393a316 316 0 0 1 14.5 32.4l12.6 31.4 14.4 35.8 1.3 3q7 17.8 14.5 35.4 7.7 19 15 38.2 6 16 12.6 32a3757 3757 0 0 1 27.4 70.2l1.4 3.6 2.6 6.5A27 27 0 0 1 899 695l-2.3 1-12.7 6-3.1 1.5A330 330 0 0 0 842 724l-3 1.8a351 351 0 0 0-24 16.2c-4.4-.2-5-1-8.2-4.4l-3.5-4.4-1.9-2.3-13-16.7-7.9-10.2-10.3-13.3q-6.9-9-14-17.4a508 508 0 0 1-13-16.3q-4.2-5.7-8.9-11.1l-7.5-9.6a1353 1353 0 0 0-24.6-30.6l-7-8.5a503 503 0 0 1-14.9-19.1q-4-5.4-8.4-10.6-7.5-9-14.3-18.4-8-10.6-16.5-20.9-7-8.4-13.6-17.3l-9-11.4q-5-6.5-9.5-13.5a48 48 0 0 1 12.5-11.3l4.3-3 2.2-1.3 8.3-5.8A566 566 0 0 1 685 435l3.2-1.8a723 723 0 0 1 75.2-35.7l3.3-1.4 3.1-1.3 2.7-1c2.5-.8 2.5-.8 7.5-.8"/><path fill="url(#b)" d="M1274 398c6 1.3 11.5 4.5 16.9 7.1l3.1 1.5 9 4.4 4 2a583 583 0 0 1 63.4 35.4q23.6 14.7 45.6 31.6l6.7 5.1 3.2 2.5 8.8 6.8 2.5 1.8c1.8 1.8 1.8 1.8 2.8 5.8-1.2 2.2-1.2 2.2-3.1 4.8l-2.3 2.9-12.3 15.3-8.8 11-12 15q-8.9 11-17.5 22-9.4 12-19 23.8l-11.6 14.8a353 353 0 0 1-15.5 19q-5.7 6.9-11.2 14l-8.3 10q-5.3 6.3-10.4 12.9-6.4 8.3-13.2 16.2-5.6 6.7-10.8 13.6l-10 12.3a641 641 0 0 0-23.1 29.5c-2.2 2.2-4 3-6.9 3.9l-2.5-2a216 216 0 0 0-31.8-19.6l-7.7-4a344 344 0 0 0-39-18.8c-4-1.6-4-1.6-7-4.6q2.9-9.8 6.5-19.5l1-2.7 3.4-8.8 1.2-3a4802 4802 0 0 1 36-90.6l1.6-4.1q17-42.3 33.4-84.7 6.3-16.3 13-32.5a1043 1043 0 0 0 14.3-36.7l1.7-4.4 1.5-4c1.4-3 1.4-3 4.4-5"/><path fill="url(#b)" d="M513 574c4.9 2.6 8.8 5.4 12.8 9.2q5.7 5.4 12 10.5 6 4.9 11.3 10.4 3.8 3.7 7.8 7 9.3 8.2 18.2 16.5a569 569 0 0 0 18.7 16.8q5 4.5 10.4 8.8 9 7.4 17.4 15.6 7 6.6 14.6 12.9a644 644 0 0 1 19.7 17.5q5 4.5 10.1 8.8 8.4 7.1 16.3 14.5l8.6 7.6 8 7.3q5.7 5.3 11.8 10.2 6.3 5.3 12 11.1 5.1 4.8 10.8 9.2 3.9 3.3 7.4 7.1 7.7 6.9 16.1 13c-.5 5-3 7.8-6 11.7l-3.1 3.8-5 6c-11.1 13.7-20.2 28.7-29.4 43.7l-1.9 3-3.8 7c-1.8 2.8-1.8 2.8-4 4-4.2-.3-7-2-10.5-4.1q-15.8-8.5-32.1-16.2-17-8.2-33.9-16.8-13-6.6-26.5-12.7-10.8-4.7-21.2-10.4-10.1-5.4-20.4-10.4l-2.9-1.5q-9-4.5-17.9-8.7a2082 2082 0 0 1-46.4-22.8l-17.4-8.8-17.8-8.9-28.6-14.3L413 724c0-4.8.1-5.9 2.3-9.8l6.6-11.6 1.6-3q2.8-4.9 5.3-10A519 519 0 0 1 468 629l1.6-2.3q9.5-13.3 20-25.8l8-10c11.7-15 11.7-15 15.4-16.9"/><path fill="url(#b)" d="M370 837q8.5 1 16.7 3.4l2.5.7 8 2.4 5.6 1.7a2363 2363 0 0 1 56.8 17.3c38.1 11.7 38.1 11.7 56 17.5q47.7 15.4 95.7 30l31 9.6 6 1.8 8.3 2.6a156 156 0 0 1 19.4 7c1.5 5.6-.1 10.2-1.6 15.7a366 366 0 0 0-10.3 55 25 25 0 0 1-4.1 12.3h-2.8l-26.7.3-13.7.2-16 .2H598l-33.6.5A10027 10027 0 0 1 414 1017l-23.4.1-14 .2h-15.2l-4.6.2H349c-3.6-.6-4.8-1.5-7-4.5-.3-3.6-.3-3.6 0-8l.2-4.9.4-5.3.3-5.4L344 973l.3-4.5a683 683 0 0 1 20-118l.7-2.9c1.2-4.3 2.2-7 5-10.6"/><path fill="url(#b)" d="M1526 583c5.1 2.5 8.2 6.5 11.7 10.9l1.9 2.3A756 756 0 0 1 1567 632l1.6 2.2A420 420 0 0 1 1592 669a820 820 0 0 1 28 48.3c3.1 6 3.1 6 3 9.3-1.1 3-2.2 3.7-5 5.2l-2.7 1.5-2.8 1.5-2.6 1.5q-10.2 5.5-20.6 10.6l-22.8 11.6a3810 3810 0 0 0-58.4 30.8l-3.6 1.9-10.5 5.4q-23.7 11.8-46.9 24.1l-18.6 9.7-2.4 1.2-2.4 1.3-5 2.5-2.4 1.2q-14.3 7.3-28.3 15-10.5 5.8-21 11.2l-2.6 1.3c-5.8 3-5.8 3-10.3 1.9-1.5-1.8-1.5-1.8-2.9-4.2l-1.6-2.6-1.6-2.8-3.5-5.9-1.8-2.8A297 297 0 0 0 1300 792c.8-5.9 4.2-8.5 8.4-12.2l2.2-2 6.4-5.8 3-2.7q5.2-4.8 10.7-9.5 7-6.1 13.8-12.7 5.7-5.3 11.5-10.3l8-7.3 10-9q6.6-5.7 13-11.8l7.8-7q7.7-7 15.3-14.2l13.3-12.1 10.2-9.5q7.6-7.1 15.4-13.9 9-7.7 17.1-16.1 6.2-6.4 12.8-12l8.5-7.8 14-12.8 8.7-8c10.5-9.6 10.5-9.6 15.9-12.3"/><path fill="url(#a)" d="m963 1060 3.3.5a1100 1100 0 0 1 100.6 21.4l12.2 3 4.4 1.1q12 3 23.5 7v3l-20.1-2.2-3.2-.4-19.5-2.4q-33-4.5-66-7.3l-3-.3q-29.2-2.2-58.5-3H934a1089 1089 0 0 0-145.6 5.1q-36 4-71.3 11.5l-3.6.8q-11.3 2.4-22.4 5.2l-3.3.8A607 607 0 0 0 592 1137l-3.2 1.4A647 647 0 0 0 530 1168l-4.1 2.4c-29.3 17-57 36.2-83.9 56.6l-3.3 2.5q-10 7.6-19.7 15.6-8.6 7-17.3 13.8c-2.7 2.1-2.7 2.1-4.7 4.1l-5-1q-7.4-16.4-13.4-33.3l-.9-2.4A566 566 0 0 1 364 1183l-1-3.3-2.5-9.9-.8-3c-1.3-5.3-2-10.2-1.7-15.8 16.3-11.9 34.1-20.9 52-30l4.2-2.2 11.8-5.8 2.6-1.3a594 594 0 0 1 95.1-35.8A775 775 0 0 1 690 1046l4.4-.3c89.8-6.2 179.9-.2 268.6 14.3"/><path fill="url(#b)" d="M1665 838a77 77 0 0 1 4 12.4 642 642 0 0 1 21.8 146.5l.1 4 .1 3.8.2 3.3c-.2 3.1-1 5.2-2.2 8a9312 9312 0 0 1-203.8-1.5l-29.5-.4-17.4-.2-30.2-.4h-4.5c-3.6-.5-3.6-.5-6.6-3.5-2.4-8.5-3.4-17.5-4.8-26.2a459 459 0 0 0-10.8-50.6c-.4-2.2-.4-2.2.6-6.2 4.3-3.5 9.8-4.7 15-6.3l6-1.8 3-1 18.4-5.8q35.9-11.4 71.6-23.1l3.2-1 10-3.3c45.4-14.9 45.4-14.9 66.8-21.7l5.3-1.7 27.6-8.8 49.7-16.1c2.4-.4 2.4-.4 6.4 1.6m-271 238c8.5.5 16.5 2.8 24.8 4.9 78.6 19.5 160.7 34 241.8 37.3l2.7.2 7.6.2c7.4.7 7.4.7 10.1 3.4 0 10.4-2 20.5-4.2 30.7l-1 4.5c-6.5 30.5-6.5 30.5-10.8 34.8-2.8.4-2.8.4-6.3.4h-13.3a941 941 0 0 1-205.3-27 489 489 0 0 1-40.4-10.4l-7.7-2.2-3.8-1-3.5-1-3.2-1c-2.5-.8-2.5-.8-4.5-2.8-.7-6.4 1.2-11.8 3.1-17.7a412 412 0 0 0 8.5-34c3.8-17.7 3.8-17.7 5.4-19.3"/></svg>